<?xml version="1.0" encoding="UTF-8"?>
<svg width="123px" height="28px" viewBox="0 0 123 28" version="1.1" xmlns="http://www.w3.org/2000/svg" xmlns:xlink="http://www.w3.org/1999/xlink">
    <!-- Generator: Sketch 43.1 (39012) - http://www.bohemiancoding.com/sketch -->
    <title>BARK_BOX_Final_February22</title>
    <desc>Created with Sketch.</desc>
    <defs></defs>
    <g id="Specs" stroke="none" stroke-width="1" fill="none" fill-rule="evenodd">
        <g id="Header" transform="translate(-491.000000, -402.000000)" fill="#42B0E2">
            <g id="Navigation" transform="translate(40.000000, 396.000000)">
                <path d="M516.824389,33.0074086 L519.83659,28.2494338 C514.56537,25.3742386 511.00532,22.4988677 509.362301,21.0269307 C512.716842,18.8019873 516.242464,16.097874 519.733836,13.3252577 L516.310967,8.29344642 C513.983269,10.5526413 510.04698,13.7701761 507.20586,15.9951195 C507.274188,11.9558996 507.445445,8.73836484 507.445445,6.06832738 L502.174049,6 C502.174049,12.7090817 501.96854,21.4035218 501.96854,33.0759116 L507.240112,32.9389056 C507.240112,31.0220502 507.137357,28.6943523 507.171609,25.7849055 C508.848879,27.3936729 513.880691,31.1590563 516.824389,33.0074086 L516.824389,33.0074086 Z M483.005144,33.9316726 C481.772792,27.3251698 479.92444,15.9951195 478.589509,6.17108193 C476.330314,6.03425152 473.010025,6.10275455 470.75083,6.27383648 C469.723987,14.488931 467.670125,25.1687295 465.992855,33.1444147 L471.469585,33.1786662 L472.4281,28.1809308 L476.501396,27.9413458 L477.391408,34 L483.005144,33.9316726 Z M551.910237,32.9389056 C556.668212,32.9389056 558.859079,29.0711189 558.859079,20.2739243 C558.859079,12.7433332 557.352715,6.65025187 551.773407,6.65025187 C547.494426,6.65025187 544.790489,10.1760503 544.790489,19.4864907 C544.790489,28.0441004 546.74142,32.9389056 551.910237,32.9389056 L551.910237,32.9389056 Z M573.509419,33.4867542 L568.238023,19.4864907 L573.577747,7.19810048 L570.120627,6.95833987 L566.423746,16.4744651 L563.206212,6.75300642 L559.680413,6.89001248 L564.404137,19.5207422 L559.372325,32.7335721 L562.761118,32.9389056 L566.252489,22.4988677 L569.881042,33.6235846 L573.509419,33.4867542 Z M500.804691,31.2273836 C498.51142,28.1126034 496.97098,25.6480751 495.054125,21.7458613 C497.347571,20.3424273 498.648251,17.8777233 498.648251,14.797019 C498.648251,11.1345658 497.039483,6.78725793 489.33781,6.78725793 C487.420779,6.78725793 485.606678,6.89001248 484.271572,7.06109442 C484.545408,15.3789435 484.750917,24.1761381 484.750917,33.0074086 L489.953811,32.9389056 C489.953811,29.5845404 489.782729,26.2298239 489.714226,22.9780376 L490.467232,22.9780376 C492.076175,26.8802514 494.33537,31.1933078 495.77288,33.5550816 L500.804691,31.2273836 Z M465.684767,25.579572 C465.684767,22.3276101 464.110251,20.2739243 461.953635,19.2811573 C463.87049,18.117484 464.966012,15.960868 464.966012,13.6333457 C464.966012,9.49137125 462.398729,6.85576097 456.887748,6.85576097 C455.449887,6.85576097 452.369182,7.06109442 451,7.23217635 C451.445094,14.8997735 451.753182,25.0661506 451.855937,33.0759116 C452.711522,33.1101632 453.841119,33.1444147 455.621144,33.1444147 C461.816805,33.1444147 465.684767,31.2960623 465.684767,25.579572 L465.684767,25.579572 Z M542.839206,26.195748 C542.839206,23.4914591 541.401696,21.3007672 538.594653,20.2054213 C541.025105,18.9732449 542.154703,16.645547 542.154703,13.7359246 C542.154703,8.29344642 537.841646,6.75300642 530.311055,7.23217635 C530.345307,15.789786 530.276804,24.4499746 529.93464,33.1444147 C538.286565,34 542.839206,31.9463142 542.839206,26.195748 L542.839206,26.195748 Z M552.012992,30.0979618 C549.411282,30.0979618 548.076526,26.3325785 548.076526,19.3154088 C548.076526,13.0514212 549.377206,9.45711974 551.670652,9.45711974 C554.340514,9.45711974 555.607118,13.5990942 555.607118,20.4450062 C555.607118,26.7774969 554.47752,30.0979618 552.012992,30.0979618 L552.012992,30.0979618 Z M538.868665,13.9755095 C538.868665,17.0904654 537.328225,18.6994084 533.426011,18.8362389 C533.494338,15.8582891 533.597093,12.8801636 533.665596,9.93646532 C537.259897,9.9022138 538.868665,11.2371447 538.868665,13.9755095 L538.868665,13.9755095 Z M456.990327,11.2371447 C458.975685,11.2371447 459.899774,12.4352452 459.899774,14.1125156 C459.899774,16.268956 458.462264,17.3300504 456.271572,17.501308 C456.203069,15.3106161 456.134566,13.1882516 456.066063,11.3056477 C456.374151,11.2713962 456.682239,11.2371447 456.990327,11.2371447 L456.990327,11.2371447 Z M493.616439,14.6944401 C493.616439,17.0562139 492.31576,18.3570689 489.953811,18.3570689 L489.679974,18.3570689 C489.645898,15.8240375 489.679974,13.4620881 489.714226,11.4082266 C489.919559,11.3739751 490.159144,11.3739751 490.398905,11.3739751 C492.418339,11.3739751 493.616439,12.6063271 493.616439,14.6944401 L493.616439,14.6944401 Z M474.002616,12.4694967 L474.858377,12.4694967 L476.672653,23.2177982 L472.325345,23.6284651 L474.002616,12.4694967 Z M518.809747,21.0611822 C521.513861,19.6577483 524.35498,18.117484 526.95669,16.645547 C526.682678,16.0636225 526.066502,14.865522 525.690087,14.2495217 C523.020049,15.8582891 520.350012,17.3643019 517.611647,18.8362389 C517.885659,19.4864907 518.501659,20.6162638 518.809747,21.0611822 L518.809747,21.0611822 Z M539.553168,26.195748 C539.553168,29.3792069 537.807395,30.6798863 533.220678,30.4743772 C533.254929,27.5306789 533.323432,24.5525535 533.39176,21.5746037 C537.499307,21.7114341 539.553168,23.2861256 539.553168,26.195748 L539.553168,26.195748 Z M457.67483,21.7114341 C459.899774,21.7114341 460.618704,23.4573832 460.618704,25.1002265 C460.618704,27.4964274 459.146767,28.5917734 456.750742,28.6260249 C456.647987,26.5721634 456.545408,24.2788927 456.442654,21.9169432 C456.887748,21.7801128 457.298415,21.7114341 457.67483,21.7114341 L457.67483,21.7114341 Z M520.213181,24.34722 C522.061534,24.9291445 524.115395,25.511069 526.135005,25.9904146 C526.306087,25.3399871 526.579923,24.1761381 526.716929,23.4573832 C524.834326,23.0122891 522.746213,22.4988677 520.897685,21.9511947 C520.726778,22.4303647 520.315936,23.8337986 520.213181,24.34722 L520.213181,24.34722 Z" id="BARK_BOX_Final_February22"></path>
            </g>
        </g>
    </g>
</svg>